<?xml version="1.0" encoding="UTF-8" standalone="no"?>
<!-- Generator: Adobe Illustrator 15.0.0, SVG Export Plug-In . SVG Version: 6.00 Build 0)  -->

<svg
   xmlns:dc="http://purl.org/dc/elements/1.1/"
   xmlns:cc="http://creativecommons.org/ns#"
   xmlns:rdf="http://www.w3.org/1999/02/22-rdf-syntax-ns#"
   xmlns:svg="http://www.w3.org/2000/svg"
   xmlns="http://www.w3.org/2000/svg"
   xmlns:sodipodi="http://sodipodi.sourceforge.net/DTD/sodipodi-0.dtd"
   xmlns:inkscape="http://www.inkscape.org/namespaces/inkscape"
   version="1.1"
   id="Layer_1"
   x="0px"
   y="0px"
   width="699.84253"
   height="298.46649"
   viewBox="0 0 699.84253 298.46649"
   enable-background="new 0 0 800 278.268"
   xml:space="preserve"
   inkscape:version="0.48.3.1 r9886"
   sodipodi:docname="eesti_logo_vector2.svg"
   inkscape:export-filename="/home/mp/eesti_logo_vector3.png"
   inkscape:export-xdpi="89.410004"
   inkscape:export-ydpi="89.410004"><metadata
   id="metadata3211"><rdf:RDF><cc:Work
       rdf:about=""><dc:format>image/svg+xml</dc:format><dc:type
         rdf:resource="http://purl.org/dc/dcmitype/StillImage" /><dc:title></dc:title></cc:Work></rdf:RDF></metadata><defs
   id="defs3209" /><sodipodi:namedview
   pagecolor="#ffffff"
   bordercolor="#666666"
   borderopacity="1"
   objecttolerance="10"
   gridtolerance="10"
   guidetolerance="10"
   inkscape:pageopacity="0"
   inkscape:pageshadow="2"
   inkscape:window-width="1280"
   inkscape:window-height="1000"
   id="namedview3207"
   showgrid="true"
   fit-margin-top="20"
   fit-margin-left="20"
   fit-margin-right="20"
   fit-margin-bottom="20"
   inkscape:zoom="0.3584375"
   inkscape:cx="303.26071"
   inkscape:cy="159.31044"
   inkscape:window-x="0"
   inkscape:window-y="24"
   inkscape:window-maximized="1"
   inkscape:current-layer="Layer_1"><inkscape:grid
     type="xygrid"
     id="grid3337"
     empspacing="1"
     visible="true"
     enabled="true"
     snapvisiblegridlinesonly="true"
     spacingx="28.664px"
     spacingy="28.701px"
     originx="-8.3714802px"
     originy="19.938508px" /></sodipodi:namedview>












































<g
   id="g4205"
   transform="matrix(0,1,-1,0,699.402,-4.0499989e-6)"><path
     style="fill:#d900ff"
     inkscape:connector-curvature="0"
     id="path3121"
     d="m 20,536.079 0,28.665 28.705,0 28.669,0 28.667,0 28.7,0 0,-28.665 -28.7,0 0,-28.727 -28.628,0 0,-28.665 -28.708,0 0,0 -28.705,0 0,28.665 0,28.727 z m 28.705,-28.726 28.632,0 0,28.727 -28.632,0 0,-28.727 0,0 z" /><rect
     transform="matrix(0,-1,1,0,0,0)"
     style="fill:#d900ff"
     id="rect3123"
     height="28.700001"
     width="28.665001"
     y="106.38201"
     x="-508.76944" /><polygon
     style="fill:#d900ff"
     transform="matrix(0,-1,1,0,8.0389999,690.26)"
     id="polygon3125"
     points="268.838,98.034 268.899,98.034 297.564,98.034 297.564,126.734 326.229,126.734 326.229,98.034 326.229,69.367 326.229,40.698 326.229,11.993 297.564,11.993 297.564,40.698 297.564,69.33 268.899,69.33 268.899,40.665 268.838,40.665 268.838,11.993 240.173,11.993 240.173,40.665 240.173,40.698 240.173,69.33 240.173,98.034 " /><path
     style="fill:#d900ff"
     inkscape:connector-curvature="0"
     id="path3127"
     d="m 20.069,306.772 0,28.661 28.705,0 28.669,0 28.667,0 28.7,0 0,-28.661 -28.7,0 0,-28.732 0,-28.665 -28.704,0 -28.632,0 -0.033,0 -28.672,0 0,28.665 0,28.732 z m 57.337,-28.732 0,28.732 -28.632,0 0,-28.732 28.632,0 z" /><polygon
     style="fill:#d900ff"
     transform="matrix(0,-1,1,0,8.0389999,690.39)"
     id="polygon3129"
     points="469.621,40.698 498.294,40.698 498.338,40.698 498.338,69.367 498.338,98.034 498.338,126.734 527.007,126.734 527.007,98.034 527.007,69.367 527.007,40.698 555.68,40.698 555.68,11.993 527.007,11.993 498.294,11.993 469.621,11.993 " /><path
     style="fill:#d900ff"
     inkscape:connector-curvature="0"
     id="path3133"
     d="m 163.5465,650.46747 0,28.667 28.652,0 28.665,0 28.714,0 28.694,0 0,-28.667 -28.694,0 0,-28.718 0,-28.669 -28.715,0 -28.664,0 -0.038,0 -28.614,0 0,28.669 0,28.718 z m 57.318,-28.718 0,28.718 -28.665,0 0,-28.718 28.665,0 z" /><rect
     transform="matrix(0,-1,1,0,0,0)"
     style="fill:#ff0098"
     id="rect3175"
     height="28.695999"
     width="28.665001"
     y="249.60651"
     x="-76.888474" /><rect
     transform="matrix(0,-1,1,0,0,0)"
     style="fill:#ff0098"
     id="rect3177"
     height="28.694"
     width="28.669001"
     y="249.77249"
     x="-162.05095" /><rect
     transform="matrix(0,-1,1,0,0,0)"
     style="fill:#ff0098"
     id="rect3179"
     height="28.694"
     width="28.663"
     y="249.77249"
     x="-104.7169" /><rect
     transform="matrix(0,-1,1,0,0,0)"
     style="fill:#ff0098"
     id="rect3181"
     height="28.694"
     width="28.665001"
     y="249.524"
     x="-48.348957" /><rect
     transform="matrix(0,-1,1,0,0,0)"
     style="fill:#ff0098"
     id="rect3183"
     height="28.701"
     width="28.669001"
     y="220.94749"
     x="-162.05095" /><rect
     transform="matrix(0,-1,1,0,0,0)"
     style="fill:#ff0098"
     id="rect3185"
     height="28.701"
     width="28.665001"
     y="220.94749"
     x="-133.38194" /><rect
     transform="matrix(0,-1,1,0,0,0)"
     style="fill:#ff0098"
     id="rect3187"
     height="28.694"
     width="28.664"
     y="249.77249"
     x="-219.32591" /><rect
     transform="matrix(0,-1,1,0,0,0)"
     style="fill:#ff0098"
     id="rect3189"
     height="28.701"
     width="28.664"
     y="220.94749"
     x="-219.32591" /><rect
     transform="matrix(0,-1,1,0,0,0)"
     style="fill:#ff0098"
     id="rect3191"
     height="28.701"
     width="28.673"
     y="220.94749"
     x="-190.66295" /><rect
     transform="matrix(0,-1,1,0,0,0)"
     style="fill:#ff0098"
     id="rect3193"
     height="28.701"
     width="28.663"
     y="220.94749"
     x="-104.7169" /><rect
     transform="matrix(0,-1,1,0,0,0)"
     style="fill:#ff0098"
     id="rect3195"
     height="28.701"
     width="28.665001"
     y="220.853"
     x="-48.348957" /><rect
     transform="matrix(0,-1,1,0,0,0)"
     style="fill:#ff0098"
     id="rect3197"
     height="28.704"
     width="28.663"
     y="192.1655"
     x="-104.7169" /><rect
     transform="matrix(0,-1,1,0,0,0)"
     style="fill:#ff0098"
     id="rect3199"
     height="28.704"
     width="28.665001"
     y="192.1965"
     x="-48.224476" /><rect
     transform="matrix(0,-1,1,0,0,0)"
     style="fill:#ff0098"
     id="rect3201"
     height="28.693001"
     width="28.663"
     y="163.4725"
     x="-104.7169" /><rect
     transform="matrix(0,-1,1,0,0,0)"
     style="fill:#ff0098"
     id="rect3203"
     height="28.693001"
     width="28.665001"
     y="163.562"
     x="-77.049973" /><rect
     transform="matrix(0,-1,1,0,0,0)"
     style="fill:#ff0098"
     id="rect3205"
     height="28.693001"
     width="28.665001"
     y="163.533"
     x="-48.348957" /><polygon
     id="polygon3119-8"
     points="10.729,69.367 10.729,98.034 10.729,126.734 39.394,126.734 68.12,126.734 96.785,126.734 96.785,98.034 68.12,98.034 39.394,98.034 39.394,69.367 39.394,40.698 68.12,40.698 96.785,40.698 96.785,11.993 68.12,11.993 39.394,11.993 10.729,11.993 10.729,40.698 "
     transform="matrix(0,-1,1,0,8.0389999,116.785)"
     style="fill:#d900ff" /><polygon
     id="polygon3119-8-0"
     points="39.394,98.034 39.394,69.367 39.394,40.698 68.12,40.698 96.785,40.698 96.785,11.993 68.12,11.993 39.394,11.993 10.729,11.993 10.729,40.698 10.729,69.367 10.729,98.034 10.729,126.734 39.394,126.734 68.12,126.734 96.785,126.734 96.785,98.034 68.12,98.034 "
     transform="matrix(0,1,-1,0,146.773,9.334)"
     style="fill:#d900ff" /><path
     sodipodi:nodetypes="cccccccccccccccccccccc"
     style="fill:#d900ff"
     inkscape:connector-curvature="0"
     id="path3131"
     d="m 278.2655,306.56947 0,28.664 -28.737,0 -28.665,0 -28.714,0 -28.694,0 0,-28.665 86.109,0.001 0,-28.664 -86.109,-0.065 0,-28.666 28.694,0 28.715,0 28.664,0 28.737,0.067 0,28.664 z m -28.701,-57.328 20.81849,38.49527 -20.81849,5.68483 11.40765,-15.5161 z" /><rect
     transform="matrix(0,-1,1,0,0,0)"
     y="163.4615"
     x="-535.88147"
     height="114.804"
     width="28.664007"
     id="rect3267"
     style="fill:#d900ff;fill-opacity:1" /><path
     sodipodi:nodetypes="cccccccccccccccccccccccccc"
     id="path3121-6"
     d="m 20.003998,650.738 0,28.664 30.807987,0 28.669,0 28.667005,0 26.66001,0 0,-28.664 -28.701,0 0,-28.664 28.701,0 0,-28.664 -28.701,0 0,28.664 -28.701002,0 0,-28.664 -26.594013,-0.065 0,0 -30.807987,0.065 0,28.664 z m 30.807987,-28.727 26.594013,0.063 0,28.664 -57.402,0 0,-28.664 z"
     inkscape:connector-curvature="0"
     style="fill:#d900ff" /><path
     sodipodi:nodetypes="cccccccccccccccccccccccccc"
     id="path3121-6-8"
     d="m 163.4615,421.22547 0,28.665 28.705,0 28.669,0 28.667,0 28.70001,0 0,-28.665 0.063,-28.664 -28.701,0 0,0 -0.12765,-1.04938 0.12765,1.04938 0.20029,0.76663 -0.20029,-29.43063 -28.701,0 -28.697,-0.064 -0.004,0.064 0,28.664 -28.701,-0.063 z m 85.91469,-29.71237 0.18831,29.71237 -28.766,0.001 -28.63199,-0.98638 -0.004,-27.67862 z"
     inkscape:connector-curvature="0"
     style="fill:#d900ff" /></g></svg>