<?xml version="1.0" encoding="UTF-8" standalone="no"?>
<!-- Generator: Adobe Illustrator 15.0.0, SVG Export Plug-In . SVG Version: 6.00 Build 0)  -->

<svg
   xmlns:dc="http://purl.org/dc/elements/1.1/"
   xmlns:cc="http://creativecommons.org/ns#"
   xmlns:rdf="http://www.w3.org/1999/02/22-rdf-syntax-ns#"
   xmlns:svg="http://www.w3.org/2000/svg"
   xmlns="http://www.w3.org/2000/svg"
   xmlns:sodipodi="http://sodipodi.sourceforge.net/DTD/sodipodi-0.dtd"
   xmlns:inkscape="http://www.inkscape.org/namespaces/inkscape"
   version="1.1"
   id="Layer_1"
   x="0px"
   y="0px"
   width="699.33899"
   height="298.47299"
   viewBox="0 0 699.33899 298.47299"
   enable-background="new 0 0 800 278.268"
   xml:space="preserve"
   inkscape:version="0.48.3.1 r9886"
   sodipodi:docname="eesti_logo_vector.svg"><metadata
   id="metadata3211"><rdf:RDF><cc:Work
       rdf:about=""><dc:format>image/svg+xml</dc:format><dc:type
         rdf:resource="http://purl.org/dc/dcmitype/StillImage" /></cc:Work></rdf:RDF></metadata><defs
   id="defs3209" /><sodipodi:namedview
   pagecolor="#ffffff"
   bordercolor="#666666"
   borderopacity="1"
   objecttolerance="10"
   gridtolerance="10"
   guidetolerance="10"
   inkscape:pageopacity="0"
   inkscape:pageshadow="2"
   inkscape:window-width="1280"
   inkscape:window-height="1000"
   id="namedview3207"
   showgrid="true"
   fit-margin-top="20"
   fit-margin-left="20"
   fit-margin-right="20"
   fit-margin-bottom="20"
   inkscape:zoom="2.0276287"
   inkscape:cx="180.97765"
   inkscape:cy="159.29799"
   inkscape:window-x="0"
   inkscape:window-y="24"
   inkscape:window-maximized="1"
   inkscape:current-layer="Layer_1"><inkscape:grid
     type="xygrid"
     id="grid3337"
     empspacing="1"
     visible="true"
     enabled="true"
     snapvisiblegridlinesonly="true"
     spacingx="28.664px"
     spacingy="28.701px"
     originx="-8.597px"
     originy="20.16399px" /></sodipodi:namedview>

<path
   d="m 163.323,19.996001 h -28.665 v 28.705 28.669 28.666999 28.7 h 28.665 v -28.7 H 192.05 V 77.409001 h 28.665 v -28.708 l 0,0 v -28.705 H 192.05 163.323 z m 28.726,28.705 v 28.632 h -28.727 v -28.632 h 28.727 l 0,0 z"
   id="path3121"
   inkscape:connector-curvature="0"
   style="fill:#d900ff" />
<rect
   x="190.63257"
   y="106.37801"
   width="28.665001"
   height="28.700001"
   id="rect3123"
   style="fill:#d900ff" />
<polygon
   points="297.564,69.33 268.899,69.33 268.899,40.665 268.838,40.665 268.838,11.993 240.173,11.993 240.173,40.665 240.173,40.698 240.173,69.33 240.173,98.034 268.838,98.034 268.899,98.034 297.564,98.034 297.564,126.734 326.229,126.734 326.229,98.034 326.229,69.367 326.229,40.698 326.229,11.993 297.564,11.993 297.564,40.698 "
   id="polygon3125"
   transform="translate(9.1420004,8.0350009)"
   style="fill:#d900ff" />
<path
   d="m 392.63,20.065001 h -28.661 v 28.705 28.669 28.666999 28.7 h 28.661 v -28.7 h 28.732 28.665 v -28.703999 -28.632 -0.033 -28.672 H 421.362 392.63 z m 28.732,57.337 H 392.63 v -28.632 h 28.732 v 28.632 z"
   id="path3127"
   inkscape:connector-curvature="0"
   style="fill:#d900ff" />
<polygon
   points="498.338,126.734 527.007,126.734 527.007,98.034 527.007,69.367 527.007,40.698 555.68,40.698 555.68,11.993 527.007,11.993 498.294,11.993 469.621,11.993 469.621,40.698 498.294,40.698 498.338,40.698 498.338,69.367 498.338,98.034 "
   id="polygon3129"
   transform="translate(9.0120006,8.0350009)"
   style="fill:#d900ff" />

<path
   d="m 278.046,163.59 h -28.667 v 28.652 28.665 28.714 28.694 h 28.667 v -28.694 h 28.718 28.669 v -28.715 -28.664 -0.038 -28.614 h -28.669 -28.718 z m 28.718,57.318 h -28.718 v -28.665 h 28.718 v 28.665 z"
   id="path3133"
   inkscape:connector-curvature="0"
   style="fill:#d900ff" />




















<rect
   x="163.386"
   y="249.61301"
   width="28.665001"
   height="28.695999"
   id="rect3175"
   style="fill:#ff0098" />
<rect
   x="78.223557"
   y="249.77899"
   width="28.669001"
   height="28.694"
   id="rect3177"
   style="fill:#ff0098" />
<rect
   x="135.55756"
   y="249.77899"
   width="28.663"
   height="28.694"
   id="rect3179"
   style="fill:#ff0098" />
<rect
   x="192.05099"
   y="249.608"
   width="28.665001"
   height="28.694"
   id="rect3181"
   style="fill:#ff0098" />
<rect
   x="78.223557"
   y="220.95399"
   width="28.669001"
   height="28.701"
   id="rect3183"
   style="fill:#ff0098" />
<rect
   x="106.89256"
   y="220.95399"
   width="28.665001"
   height="28.701"
   id="rect3185"
   style="fill:#ff0098" />
<rect
   x="20.948559"
   y="249.77899"
   width="28.664"
   height="28.694"
   id="rect3187"
   style="fill:#ff0098" />
<rect
   x="20.948559"
   y="220.95399"
   width="28.664"
   height="28.701"
   id="rect3189"
   style="fill:#ff0098" />
<rect
   x="49.611557"
   y="220.95399"
   width="28.673"
   height="28.701"
   id="rect3191"
   style="fill:#ff0098" />
<rect
   x="135.55756"
   y="220.95399"
   width="28.663"
   height="28.701"
   id="rect3193"
   style="fill:#ff0098" />
<rect
   x="192.05099"
   y="220.907"
   width="28.665001"
   height="28.701"
   id="rect3195"
   style="fill:#ff0098" />
<rect
   x="135.55756"
   y="192.172"
   width="28.663"
   height="28.704"
   id="rect3197"
   style="fill:#ff0098" />
<rect
   x="192.05"
   y="192.203"
   width="28.665001"
   height="28.704"
   id="rect3199"
   style="fill:#ff0098" />
<rect
   x="135.55756"
   y="163.479"
   width="28.663"
   height="28.693001"
   id="rect3201"
   style="fill:#ff0098" />
<rect
   x="164.22057"
   y="163.479"
   width="28.665001"
   height="28.693001"
   id="rect3203"
   style="fill:#ff0098" />
<rect
   x="192.05"
   y="163.505"
   width="28.665001"
   height="28.693001"
   id="rect3205"
   style="fill:#ff0098" />
<polygon
   style="fill:#d900ff"
   transform="translate(582.617,8.0350009)"
   points="39.394,98.034 39.394,69.367 39.394,40.698 68.12,40.698 96.785,40.698 96.785,11.993 68.12,11.993 39.394,11.993 10.729,11.993 10.729,40.698 10.729,69.367 10.729,98.034 10.729,126.734 39.394,126.734 68.12,126.734 96.785,126.734 96.785,98.034 68.12,98.034 "
   id="polygon3119-8" /><polygon
   style="fill:#d900ff"
   transform="matrix(-1,0,0,-1,690.068,146.769)"
   points="10.729,11.993 10.729,40.698 10.729,69.367 10.729,98.034 10.729,126.734 39.394,126.734 68.12,126.734 96.785,126.734 96.785,98.034 68.12,98.034 39.394,98.034 39.394,69.367 39.394,40.698 68.12,40.698 96.785,40.698 96.785,11.993 68.12,11.993 39.394,11.993 "
   id="polygon3119-8-0" /><path
   d="m 621.944,278.309 -28.664,0 0,-28.737 0,-28.665 0,-28.714 0,-28.694 28.665,0 -0.001,86.109 28.664,0 0.065,-86.109 28.666,0 0,28.694 0,28.715 0,28.664 -0.067,28.737 -28.664,0 z m 57.328,-28.701 -38.49527,20.81849 -5.68483,-20.81849 15.5161,11.40765 z"
   id="path3131"
   inkscape:connector-curvature="0"
   style="fill:#d900ff"
   sodipodi:nodetypes="cccccccccccccccccccccc" /><rect
   style="fill:#d900ff;fill-opacity:1"
   id="rect3267"
   width="28.664007"
   height="114.804"
   x="392.63202"
   y="163.505" /><path
   style="fill:#d900ff"
   inkscape:connector-curvature="0"
   d="m 48.664,19.999999 -28.664,0 0,30.807987 0,28.669 0,28.667004 0,26.66001 28.664,0 0,-28.701 28.664,0 0,28.701 28.664,0 0,-28.701 -28.664,0 0,-28.701001 28.664,0 0.065,-26.594013 0,0 -0.065,-30.807987 -28.664,0 z m 28.727,30.807987 -0.063,26.594013 -28.664,0 0,-57.402 28.664,0 z"
   id="path3121-6"
   sodipodi:nodetypes="cccccccccccccccccccccccccc" /><path
   style="fill:#d900ff"
   inkscape:connector-curvature="0"
   d="m 507.288,163.505 -28.665,0 0,28.705 0,28.669 0,28.667 0,28.70001 28.665,0 28.664,0.063 0,-28.701 0,0 1.04938,-0.12765 -1.04938,0.12765 -0.76663,0.20029 29.43063,-0.20029 0,-28.701 0.064,-28.697 -0.064,-0.004 -28.664,0 0.063,-28.701 z m 29.71237,85.91469 -29.71237,0.18831 -0.001,-28.766 0.98638,-28.63199 27.67862,-0.004 z"
   id="path3121-6-8"
   sodipodi:nodetypes="cccccccccccccccccccccccccc" /></svg>