<?xml version="1.0" encoding="UTF-8" standalone="no"?>
<!-- Generator: Adobe Illustrator 16.0.0, SVG Export Plug-In . SVG Version: 6.00 Build 0)  -->

<svg
   xmlns:dc="http://purl.org/dc/elements/1.1/"
   xmlns:cc="http://creativecommons.org/ns#"
   xmlns:rdf="http://www.w3.org/1999/02/22-rdf-syntax-ns#"
   xmlns:svg="http://www.w3.org/2000/svg"
   xmlns="http://www.w3.org/2000/svg"
   xmlns:sodipodi="http://sodipodi.sourceforge.net/DTD/sodipodi-0.dtd"
   xmlns:inkscape="http://www.inkscape.org/namespaces/inkscape"
   version="1.1"
   id="Layer_1"
   x="0px"
   y="0px"
   width="2862.99px"
   height="1502.36px"
   viewBox="0 0 2862.99 1502.36"
   enable-background="new 0 0 2862.99 1502.36"
   xml:space="preserve"
   inkscape:version="0.48.3.1 r9886"
   sodipodi:docname="logo1.svg"><metadata
   id="metadata37"><rdf:RDF><cc:Work
       rdf:about=""><dc:format>image/svg+xml</dc:format><dc:type
         rdf:resource="http://purl.org/dc/dcmitype/StillImage" /></cc:Work></rdf:RDF></metadata><defs
   id="defs35" /><sodipodi:namedview
   pagecolor="#ffffff"
   bordercolor="#666666"
   borderopacity="1"
   objecttolerance="10"
   gridtolerance="10"
   guidetolerance="10"
   inkscape:pageopacity="0"
   inkscape:pageshadow="2"
   inkscape:window-width="1024"
   inkscape:window-height="740"
   id="namedview33"
   showgrid="false"
   inkscape:zoom="0.62834474"
   inkscape:cx="1431.495"
   inkscape:cy="751.17999"
   inkscape:window-x="0"
   inkscape:window-y="0"
   inkscape:window-maximized="1"
   inkscape:current-layer="Layer_1" />
<path
   id="path3121"
   connector-curvature="0"
   fill="#D900FF"
   d="M1245.323,622h-28.665v28.705v28.669v28.667v28.699h28.665  v-28.699h28.727v-28.628h28.665v-28.708l0,0V622h-28.665H1245.323L1245.323,622z M1274.049,650.705v28.632h-28.727v-28.632H1274.049  L1274.049,650.705z" />
<rect
   id="rect3123"
   x="1272.633"
   y="708.382"
   fill="#D900FF"
   width="28.665"
   height="28.7" />
<polygon
   id="polygon3125"
   fill="#D900FF"
   points="1388.706,679.369 1360.041,679.369 1360.041,650.704 1359.98,650.704   1359.98,622.031 1331.315,622.031 1331.315,650.704 1331.315,650.736 1331.315,679.369 1331.315,708.072 1359.98,708.072   1360.041,708.072 1388.706,708.072 1388.706,736.772 1417.371,736.772 1417.371,708.072 1417.371,679.405 1417.371,650.736   1417.371,622.031 1388.706,622.031 1388.706,650.736 " />
<path
   id="path3127"
   connector-curvature="0"
   fill="#D900FF"
   d="M1474.631,622.068h-28.662v28.705v28.669v28.667v28.7  h28.662v-28.7h28.732h28.664v-28.704v-28.632v-0.033v-28.672h-28.664H1474.631z M1503.363,679.405h-28.732v-28.632h28.732V679.405z" />
<polygon
   id="polygon3129"
   fill="#D900FF"
   points="1589.35,736.772 1618.02,736.772 1618.02,708.072 1618.02,679.405   1618.02,650.736 1646.693,650.736 1646.693,622.031 1618.02,622.031 1589.307,622.031 1560.633,622.031 1560.633,650.736   1589.307,650.736 1589.35,650.736 1589.35,679.405 1589.35,708.072 " />
<path
   id="path3133"
   connector-curvature="0"
   fill="#D900FF"
   d="M1360.046,765.594h-28.667v28.652v28.665v28.714v28.693  h28.667v-28.693h28.718h28.669V822.91v-28.664v-0.038v-28.614h-28.669H1360.046L1360.046,765.594z M1388.764,822.912h-28.718  v-28.665h28.718V822.912z" />
<rect
   id="rect3175"
   x="1245.386"
   y="851.616"
   fill="#FF0098"
   width="28.665"
   height="28.696" />
<rect
   id="rect3177"
   x="1160.224"
   y="851.782"
   fill="#FF0098"
   width="28.669"
   height="28.694" />
<rect
   id="rect3179"
   x="1217.558"
   y="851.782"
   fill="#FF0098"
   width="28.663"
   height="28.694" />
<rect
   id="rect3181"
   x="1274.051"
   y="851.611"
   fill="#FF0098"
   width="28.665"
   height="28.694" />
<rect
   id="rect3183"
   x="1160.224"
   y="822.958"
   fill="#FF0098"
   width="28.669"
   height="28.7" />
<rect
   id="rect3185"
   x="1188.893"
   y="822.958"
   fill="#FF0098"
   width="28.665"
   height="28.7" />
<rect
   id="rect3187"
   x="1102.949"
   y="851.782"
   fill="#FF0098"
   width="28.664"
   height="28.694" />
<rect
   id="rect3189"
   x="1102.949"
   y="822.958"
   fill="#FF0098"
   width="28.664"
   height="28.7" />
<rect
   id="rect3191"
   x="1131.611"
   y="822.958"
   fill="#FF0098"
   width="28.673"
   height="28.7" />
<rect
   id="rect3193"
   x="1217.558"
   y="822.958"
   fill="#FF0098"
   width="28.663"
   height="28.7" />
<rect
   id="rect3195"
   x="1274.051"
   y="822.911"
   fill="#FF0098"
   width="28.665"
   height="28.7" />
<rect
   id="rect3197"
   x="1217.558"
   y="794.176"
   fill="#FF0098"
   width="28.663"
   height="28.704" />
<rect
   id="rect3199"
   x="1274.05"
   y="794.207"
   fill="#FF0098"
   width="28.665"
   height="28.704" />
<rect
   id="rect3201"
   x="1217.558"
   y="765.482"
   fill="#FF0098"
   width="28.663"
   height="28.693" />
<rect
   id="rect3203"
   x="1246.221"
   y="765.482"
   fill="#FF0098"
   width="28.665"
   height="28.693" />
<rect
   id="rect3205"
   x="1274.05"
   y="765.509"
   fill="#FF0098"
   width="28.665"
   height="28.693" />
<polygon
   id="polygon3119-8"
   fill="#D900FF"
   points="1704.012,708.072 1704.012,679.405 1704.012,650.736 1732.738,650.736   1761.402,650.736 1761.402,622.031 1732.738,622.031 1704.012,622.031 1675.346,622.031 1675.346,650.736 1675.346,679.405   1675.346,708.072 1675.346,736.772 1704.012,736.772 1732.738,736.772 1761.402,736.772 1761.402,708.072 1732.738,708.072 " />
<polygon
   id="polygon3119-8-0"
   fill="#D900FF"
   points="1761.34,736.779 1761.34,708.074 1761.34,679.405 1761.34,650.738   1761.34,622.039 1732.674,622.039 1703.949,622.039 1675.283,622.039 1675.283,650.738 1703.949,650.738 1732.674,650.738   1732.674,679.405 1732.674,708.074 1703.949,708.074 1675.283,708.074 1675.283,736.779 1703.949,736.779 1732.674,736.779 " />
<path
   id="path3131"
   nodetypes="cccccccccccccccccccccc"
   connector-curvature="0"
   fill="#D900FF"
   d="  M1703.945,880.313h-28.664v-28.737v-28.664v-28.715v-28.693h28.664v86.108h28.664l0.064-86.108h28.666v28.693v28.716v28.663  l-0.068,28.737h-28.662H1703.945z M1761.271,851.611l-38.494,20.818l-5.686-20.818l15.518,11.408L1761.271,851.611z" />
<rect
   id="rect3267"
   x="1474.633"
   y="765.509"
   fill="#D900FF"
   width="28.664"
   height="114.804" />
<path
   id="path3121-6"
   nodetypes="cccccccccccccccccccccccccc"
   connector-curvature="0"
   fill="#D900FF"
   d="  M1130.664,622.004H1102v30.808v28.669v28.667v26.66h28.664v-28.701h28.664v28.701h28.664v-28.701h-28.664v-28.701h28.664  l0.065-26.594l0,0l-0.065-30.808h-28.664H1130.664z M1159.391,652.812l-0.063,26.594h-28.664v-57.401h28.664L1159.391,652.812z" />
<path
   id="path3121-6-8"
   nodetypes="cccccccccccccccccccccccccc"
   connector-curvature="0"
   fill="#D900FF"
   d="  M1589.289,765.509h-28.666v28.705v28.669v28.667v28.7h28.666l28.664,0.063v-28.701l0,0l1.049-0.127l-1.049,0.127l-0.768,0.2  l29.432-0.2v-28.7l0.063-28.697l-0.063-0.004h-28.664l0.063-28.701H1589.289z M1619,851.424l-29.711,0.188l-0.002-28.766  l0.986-28.632l27.68-0.004L1619,851.424z" />
<text
   transform="matrix(1.0235,0,0,1,1076.3062,937.0898)"
   font-size="43.3607"
   letter-spacing="9.77"
   id="text31"
   style="font-size:43.3606987px;letter-spacing:9.77000046;fill:#d900ff;font-family:VDS-Bold"><tspan
     style="font-style:normal;font-variant:normal;font-weight:bold;font-stretch:normal;font-family:VDS;-inkscape-font-specification:VDS Bold;letter-spacing:9.98337661px"
     id="tspan3014"> https://cryptoparty.org</tspan></text>

</svg>